<svg xmlns="http://www.w3.org/2000/svg" viewBox="0 0 48 48" role="img" aria-label="Docker">
  <rect width="48" height="48" rx="12" fill="#2496ED"/>
  <g fill="#fff">
    <rect x="14" y="22" width="4.4" height="4.4" rx="1"/>
    <rect x="19.4" y="22" width="4.4" height="4.4" rx="1"/>
    <rect x="24.8" y="22" width="4.4" height="4.4" rx="1"/>
    <rect x="19.4" y="16.6" width="4.4" height="4.4" rx="1"/>
    <rect x="24.8" y="16.6" width="4.4" height="4.4" rx="1"/>
  </g>
  <path d="M34 24.5c-.7-.5-2.3-.7-3.5-.5-.2-1.1-.8-2.1-1.8-3l-.6-.5-.5.6c-.7.9-.9 2.3-.4 3.4-.5.3-1.4.4-2 .4H12c-.4 2.4.3 5.5 2.4 7.6 2 2 5 3 8.9 3 7.6 0 12.6-3.5 14.4-9.9 1.1 0 3 .1 3.9-1.8l.2-.4z" fill="#fff"/>
</svg>
