<?xml version="1.0" encoding="UTF-8" standalone="no"?><!DOCTYPE svg PUBLIC "-//W3C//DTD SVG 1.1//EN" "http://www.w3.org/Graphics/SVG/1.1/DTD/svg11.dtd"><svg width="100%" height="100%" viewBox="0 0 45 46" version="1.1" xmlns="http://www.w3.org/2000/svg" xmlns:xlink="http://www.w3.org/1999/xlink" xml:space="preserve" xmlns:serif="http://www.serif.com/" style="fill-rule:evenodd;clip-rule:evenodd;stroke-linejoin:round;stroke-miterlimit:2;"><path d="M22.363,0.822c0.067,0.392 -0.188,0.467 -1.663,0.525c-0.85,0.046 -0.938,0.017 -0.987,-0.3c-0.067,-0.433 0.458,-0.629 1.667,-0.583c0.812,0.029 0.933,0.075 0.983,0.358m-1.833,-0.75c-0.529,0.092 -1.192,0.617 -1.192,0.946c0,0.133 0.154,0.375 0.342,0.525c0.271,0.225 0.508,0.254 1.392,0.163c1.613,-0.163 2.142,-0.779 1.225,-1.425c-0.442,-0.3 -0.85,-0.342 -1.767,-0.208" style="fill:#126a9d;fill-rule:nonzero;"/><path d="M27.187,13.29c0.613,1.004 1.546,2.129 2.633,3.179c0.746,0.708 0.867,0.783 1.188,0.617c0.8,-0.375 1.904,-0.017 2.363,0.75c0.883,1.529 -1.463,3.017 -2.838,1.8c-0.392,-0.358 -0.492,-0.571 -0.492,-1.096c0,-0.571 -0.088,-0.733 -0.696,-1.246c-1.513,-1.304 -3.688,-4.2 -3.483,-4.662c0.204,-0.467 0.817,-0.167 1.325,0.658m4.45,-2.596c0.629,1.021 0.646,1.471 0.033,1.396c-0.508,-0.058 -1.579,-1.846 -1.292,-2.146c0.375,-0.404 0.646,-0.242 1.258,0.75m-9.342,-3.254c0.05,0.075 0.171,0.571 0.271,1.108c0.662,3.692 2.617,7.083 5.604,9.708c1.7,1.5 2.804,2.192 4.979,3.092c2.446,1.017 3.992,1.317 6.979,1.363c1.375,0.017 2.583,0.092 2.683,0.179c0.221,0.196 -0.017,0.587 -0.425,0.692c-0.713,0.167 -3.65,0.092 -5.113,-0.133c-5.637,-0.871 -10.579,-4.142 -13.5,-8.929c-1.242,-2.054 -2.65,-6.508 -2.208,-6.992c0.221,-0.237 0.592,-0.267 0.729,-0.087m10.208,-2.521c0.05,0.075 0.254,0.871 0.442,1.754c0.663,3.092 2.192,5.133 4.621,6.196c0.967,0.421 1.408,0.513 2.596,0.571c1.358,0.058 1.429,0.092 1.429,0.421c0,0.479 -0.613,0.6 -2.175,0.404c-3.837,-0.496 -6.421,-3.075 -7.404,-7.379c-0.238,-1.021 -0.392,-1.921 -0.342,-1.996c0.121,-0.167 0.696,-0.15 0.833,0.029m-3.363,-0.975c0.304,0.496 0.663,1.2 0.779,1.558c0.188,0.542 0.325,0.692 0.8,0.825c0.575,0.167 1.188,0.933 1.188,1.487c0,0.883 -1.221,1.725 -2.225,1.529c-1.238,-0.242 -1.75,-1.725 -0.9,-2.612c0.325,-0.329 0.408,-0.554 0.308,-0.792c-0.121,-0.392 -0.988,-1.862 -1.292,-2.237c-0.271,-0.346 -0.05,-0.763 0.408,-0.704c0.238,0.029 0.542,0.346 0.933,0.946m-4.808,-0.779c2.004,0.808 2.838,1.887 3.417,4.425c0.492,2.1 0.9,3.208 1.712,4.517c1.888,3.012 4.942,5.113 8.458,5.788c1.308,0.258 1.667,0.258 5.283,0.033c0.442,-0.033 0.508,0.012 0.508,0.342c0,0.333 -0.1,0.375 -1.017,0.558c-4.008,0.733 -8.392,-0.525 -11.567,-3.317c-2.296,-2.025 -3.621,-4.379 -4.333,-7.65c-0.188,-0.933 -0.492,-1.771 -0.796,-2.254c-0.938,-1.483 -3.025,-2.279 -4.946,-1.904c-1.392,0.287 -1.613,0.287 -1.679,-0.046c-0.083,-0.375 0.117,-0.525 1.087,-0.763c1.121,-0.288 2.767,-0.179 3.871,0.271m-5.875,-0.558c0.442,0.258 0.475,0.408 0.117,0.663c-0.187,0.133 -0.371,0.133 -0.846,0c-0.7,-0.212 -0.904,-0.496 -0.596,-0.825c0.238,-0.258 0.663,-0.196 1.325,0.162m-1.275,-0.525c-0.204,0.062 -0.425,0.3 -0.492,0.512c-0.171,0.6 0.408,1.033 1.358,1.05c0.579,0 0.85,0.087 1.138,0.346c0.304,0.3 0.458,0.342 0.9,0.254c0.288,-0.062 1.071,-0.138 1.75,-0.167c1.071,-0.029 1.342,0.017 2.125,0.375c1.508,0.704 2.154,1.754 2.579,4.142c0.342,1.904 1.733,4.529 3.229,6.137c0.558,0.583 1.154,1.171 1.325,1.304c0.167,0.133 0.304,0.317 0.304,0.421c0,0.254 -0.712,0.196 -1.104,-0.104c-0.492,-0.375 -1.971,-2.088 -2.633,-3.033c-0.646,-0.946 -0.95,-1.183 -1.496,-1.2c-0.592,0 -0.812,0.588 -0.492,1.304c0.375,0.858 1.667,2.479 2.837,3.604c0.663,0.629 1.021,1.108 1.021,1.35c0,0.479 -0.342,0.312 -1.446,-0.737c-1.375,-1.275 -2.037,-2.054 -2.854,-3.421c-1.071,-1.754 -1.629,-3.088 -2.071,-5.008c-0.425,-1.771 -0.783,-2.296 -1.425,-2.117c-0.629,0.179 -0.767,0.6 -0.529,1.858c0.221,1.188 1.071,3.662 1.683,4.817c0.762,1.471 2.021,3.213 3.021,4.2c2.092,2.071 3.892,3.317 6.167,4.308c3.004,1.304 5.096,1.742 8.425,1.754c1.342,0 1.817,-0.058 2.175,-0.254c0.492,-0.288 0.558,-0.663 0.221,-1.067c-0.204,-0.238 -0.546,-0.283 -2.517,-0.312c-2.396,-0.046 -4.533,-0.363 -5.671,-0.825c-0.375,-0.15 -0.85,-0.317 -1.054,-0.362c-0.204,-0.058 -0.558,-0.238 -0.8,-0.404l-0.421,-0.3l0.746,-0.646c0.629,-0.525 0.763,-0.733 0.763,-1.183c0,-0.3 0.087,-0.558 0.188,-0.558c0.104,0 0.646,0.167 1.225,0.363c2.154,0.75 2.7,0.837 4.908,0.854c2.7,0.029 4.108,-0.479 3.788,-1.35c-0.154,-0.421 -0.733,-0.525 -1.904,-0.346c-3.225,0.496 -6.742,-0.45 -9.562,-2.567c-1.237,-0.942 -3.021,-3.342 -3.667,-4.95l-0.238,-0.583l0.542,0.087c0.646,0.108 0.629,0.108 0.729,0.558c0.154,0.733 0.867,1.921 1.225,2.1c0.613,0.283 1.237,-0.029 1.237,-0.617c0,-0.463 -0.696,-1.846 -1.017,-2.025c-0.204,-0.104 0.254,-0.675 0.525,-0.675c0.088,0 0.375,0.421 0.662,0.929c0.292,0.525 0.646,1.113 0.767,1.321c0.354,0.571 1.933,1.904 2.833,2.417c1.683,0.958 4.742,1.362 5.504,0.721c0.817,-0.675 0,-1.275 -1.767,-1.308c-1.458,-0.029 -2.717,-0.567 -4.025,-1.738c-1.342,-1.217 -1.987,-2.417 -2.529,-4.667c-0.425,-1.8 -0.646,-2.175 -1.292,-2.175c-0.508,0 -0.9,0.525 -0.762,1.033c0.083,0.346 0.05,0.467 -0.121,0.467c-0.425,0 -0.746,-0.363 -1.204,-1.35c-0.767,-1.621 -1.854,-2.371 -2.429,-1.696c-0.342,0.404 -0.292,0.767 0.221,1.529c0.712,1.05 0.9,1.604 0.646,1.904c-0.242,0.3 -0.596,0.167 -0.596,-0.225c0,-0.867 -1.921,-2.788 -3.346,-3.342c-1.121,-0.438 -3.55,-0.558 -4.367,-0.212c-0.746,0.317 -0.917,0.3 -1.254,-0.058c-0.358,-0.375 -1.192,-0.6 -1.683,-0.438" style="fill:#126a9d;fill-rule:nonzero;"/><path d="M29.429,7.393c-0.254,0.346 -0.254,0.404 0,0.75c0.442,0.6 1.462,0.392 1.462,-0.3c0,-0.796 -0.987,-1.096 -1.462,-0.45" style="fill:#126a9d;fill-rule:nonzero;"/><path d="M31.161,18.06c-0.154,0.121 -0.271,0.329 -0.271,0.45c0,0.225 0.592,0.808 0.812,0.808c0.308,0 0.883,-0.492 0.883,-0.75c0,-0.358 -0.442,-0.75 -0.846,-0.75c-0.171,0 -0.442,0.108 -0.579,0.242" style="fill:#126a9d;fill-rule:nonzero;"/><path d="M16.062,4.333c0.817,0.242 1.629,0.496 1.8,0.542c0.342,0.088 0.392,0.733 0.083,0.825c-0.117,0.042 -1.083,-0.196 -2.121,-0.525c-1.717,-0.525 -1.921,-0.633 -1.921,-0.946c0,-0.479 0.325,-0.467 2.158,0.104m-2.225,-0.479c-0.342,0.329 -0.254,0.75 0.204,1.096c0.154,0.133 1.054,0.433 1.971,0.704c1.562,0.421 1.713,0.45 2.088,0.237c0.546,-0.312 0.508,-0.883 -0.067,-1.242c-0.508,-0.317 -3.058,-1.083 -3.583,-1.083c-0.171,0 -0.458,0.138 -0.612,0.288" style="fill:#126a9d;fill-rule:nonzero;"/><path d="M34.796,33.078c1.021,0.525 1.221,1.708 0.408,2.463c-0.254,0.237 -0.579,0.433 -0.696,0.433c-0.121,0 -0.221,0.017 -0.237,0.029c0,0.029 -0.104,0.542 -0.204,1.154c-0.221,1.217 -0.629,1.683 -1.038,1.188c-0.171,-0.212 -0.171,-0.45 0.017,-1.275l0.237,-1.021l-0.442,-0.346c-0.95,-0.721 -0.883,-2.042 0.154,-2.596c0.646,-0.346 1.171,-0.358 1.8,-0.029m-3.092,-0.179c0.067,1.875 -0.188,3.825 -0.729,5.671c-0.613,2.117 -1.138,3.179 -1.546,3.179c-0.492,0 -0.492,-0.525 0.017,-1.754c0.8,-1.938 1.121,-3.496 1.204,-5.971c0.054,-1.275 0.121,-2.417 0.171,-2.521c0.033,-0.104 0.238,-0.179 0.442,-0.15c0.375,0.046 0.392,0.121 0.442,1.546m7.117,-6.196c0.204,0.238 0.729,3.029 0.729,3.871c0,0.583 -0.017,0.613 -0.458,0.571c-0.408,-0.046 -0.475,-0.121 -0.525,-0.571c-0.017,-0.288 -0.154,-1.233 -0.304,-2.071c-0.138,-0.854 -0.221,-1.65 -0.171,-1.771c0.117,-0.254 0.508,-0.271 0.729,-0.029m-2.633,0.046c0.546,1.692 1.104,6.479 0.9,7.604c-0.083,0.433 -0.204,0.571 -0.442,0.571c-0.442,0 -0.442,-0.046 -0.558,-2.475c-0.104,-1.95 -0.325,-3.45 -0.767,-5.221c-0.221,-0.825 -0.133,-1.038 0.375,-0.975c0.221,0.029 0.408,0.208 0.492,0.496m-1.425,-1.021c0.408,0.088 0.492,0.329 0.188,0.6c-0.138,0.117 -0.104,0.6 0.188,1.8c0.387,1.696 0.696,4.846 0.458,4.846c-0.071,0 -0.358,-0.104 -0.646,-0.225c-0.392,-0.179 -0.458,-0.287 -0.342,-0.496c0.087,-0.133 0.121,-0.525 0.087,-0.854c-0.171,-1.921 -0.308,-2.7 -0.683,-4.038c-0.508,-1.858 -0.508,-1.95 -0.017,-1.817c0.204,0.046 0.546,0.137 0.767,0.183m-1.375,0.792c0.475,1.533 0.867,3.496 0.933,4.729c0.05,0.871 0.033,0.9 -0.375,0.9c-0.492,0 -0.525,-0.137 -0.85,-2.446c-0.117,-0.779 -0.387,-2.025 -0.608,-2.775c-0.458,-1.488 -0.425,-1.8 0.133,-1.725c0.308,0.029 0.442,0.254 0.767,1.317m-2.958,-0.525c0.546,1.354 1.225,4.188 1.071,4.517c-0.15,0.346 -0.762,0.254 -0.867,-0.133c-0.05,-0.179 -0.237,-1.004 -0.442,-1.829c-0.204,-0.825 -0.542,-1.938 -0.762,-2.479c-0.288,-0.717 -0.342,-1.004 -0.204,-1.154c0.392,-0.421 0.729,-0.121 1.204,1.079m-22.946,-9.167c1.292,0.121 1.496,0.212 1.496,0.646c0,0.375 -0.033,0.375 -0.8,0.288c-2.308,-0.258 -3.733,-0.271 -5.312,-0.017c-2.142,0.346 -2.058,0.329 -2.263,0.046c-0.254,-0.346 -0.017,-0.554 0.833,-0.737c0.696,-0.163 4.163,-0.404 4.738,-0.342c0.188,0.029 0.767,0.075 1.308,0.117m1.767,-2.083c2.754,0.508 5.521,1.558 7.813,2.954c1.479,0.887 1.8,1.2 1.667,1.533c-0.171,0.387 -0.475,0.283 -1.888,-0.6c-2.292,-1.458 -5.058,-2.554 -7.608,-3.004c-1.613,-0.283 -2.071,-0.479 -1.9,-0.867c0.133,-0.3 0.321,-0.3 1.917,-0.017m-3.65,-1.229c1.104,0.646 1.017,2.175 -0.121,2.638c-0.813,0.333 -1.596,0.212 -2.171,-0.329l-0.529,-0.508l-1,0.208c-0.75,0.15 -1.054,0.15 -1.225,0.029c-0.613,-0.45 -0.1,-0.792 1.446,-0.975c0.646,-0.075 0.867,-0.163 1.017,-0.45c0.204,-0.417 1.137,-0.958 1.65,-0.958c0.204,0 0.608,0.15 0.933,0.346m4.042,-1.096c2.362,0.421 3.45,0.75 5.875,1.8c3.367,1.442 6.321,3.583 8.646,6.288c1.021,1.167 1.104,1.362 0.696,1.663c-0.271,0.212 -0.221,0.258 -1.95,-1.696c-1.396,-1.529 -3.804,-3.433 -5.725,-4.5c-2.192,-1.2 -4.4,-2.008 -7.15,-2.608c-1.596,-0.346 -2.175,-0.392 -4.704,-0.392c-1.579,0 -3.262,0.075 -3.738,0.167c-0.679,0.117 -0.9,0.117 -1.087,-0.046c-0.563,-0.496 0.221,-0.779 2.871,-1.037c1.292,-0.133 4.583,0.062 6.267,0.362m3.429,-0.3c0.171,0 0.358,0.058 0.408,0.15c0.05,0.075 0.237,0.15 0.392,0.15c0.171,0 1.358,0.463 2.65,1.05c1.292,0.571 2.479,1.05 2.65,1.05c0.188,0 0.442,-0.15 0.575,-0.317c0.237,-0.312 0.275,-0.267 0.937,0.871c0.371,0.663 0.9,1.546 1.188,1.967c0.287,0.433 0.442,0.779 0.358,0.779c-0.104,0 -0.171,-0.075 -0.171,-0.15c0,-0.092 -0.088,-0.15 -0.188,-0.15c-0.104,0 -0.579,-0.3 -1.037,-0.675c-1.033,-0.808 -2.767,-1.904 -3.938,-2.458c-0.479,-0.225 -1.021,-0.483 -1.208,-0.571c-0.796,-0.392 -2.275,-0.917 -3.225,-1.158c-0.563,-0.15 -1.154,-0.283 -1.308,-0.329c-0.392,-0.104 -0.392,-0.283 0.033,-0.658c0.342,-0.3 0.342,-0.3 0.95,0.075c0.342,0.208 0.767,0.375 0.933,0.375m1.275,-0.9c1.767,0.583 4.246,1.679 4.979,2.204c0.404,0.3 0.338,0.796 -0.104,0.796c-0.137,0 -0.762,-0.271 -1.392,-0.6c-1.308,-0.662 -3.396,-1.5 -4.738,-1.892c-0.921,-0.254 -1.175,-0.479 -0.988,-0.883c0.137,-0.317 0.254,-0.3 2.242,0.375m1.208,-0.779c1.442,0.658 2.342,0.942 2.904,0.9c0.592,-0.046 0.608,-0.033 0.867,0.658c0.371,1.096 0.404,1.096 -2.025,-0.058c-0.608,-0.287 -1.375,-0.6 -1.696,-0.721c-0.325,-0.104 -0.867,-0.287 -1.192,-0.404c-0.321,-0.121 -1.05,-0.3 -1.613,-0.408c-0.712,-0.133 -1.033,-0.267 -1.071,-0.45c-0.15,-0.646 0.054,-0.658 1.821,-0.15c0.933,0.271 1.833,0.558 2.004,0.633m-5.167,-1.458c1.071,0.483 1.292,1.608 0.479,2.417c-0.425,0.421 -0.612,0.496 -1.258,0.496c-0.817,0 -1.529,-0.421 -1.75,-1.004c-0.083,-0.242 -0.304,-0.271 -2.496,-0.271c-1.325,0 -2.904,0.075 -3.5,0.162c-0.9,0.121 -1.137,0.108 -1.342,-0.075c-0.358,-0.312 -0.154,-0.629 0.508,-0.75c0.308,-0.058 1.971,-0.133 3.687,-0.179l3.108,-0.075l0.508,-0.433c0.546,-0.483 1.358,-0.6 2.054,-0.288m-0.642,-1.287c2.188,0.342 4.804,1.033 6.962,1.846c1.513,0.567 1.883,0.762 1.917,1.05c0.087,0.554 -0.337,0.525 -2.021,-0.138c-5.058,-1.979 -9.833,-2.608 -15.217,-1.996c-0.746,0.092 -0.917,0.063 -1.004,-0.15c-0.221,-0.496 0.308,-0.687 2.075,-0.825c2.258,-0.162 5.417,-0.075 7.288,0.213m14.096,-2.117c0.762,0.525 1,0.975 1.358,2.729c0.154,0.738 0.442,1.742 0.629,2.221c0.288,0.796 0.304,0.917 0.067,1.113c-0.204,0.192 -0.304,0.192 -0.508,0.029c-0.325,-0.225 -0.883,-1.846 -1.208,-3.45c-0.133,-0.646 -0.321,-1.308 -0.442,-1.471c-0.746,-1.05 -2.833,-1.021 -3.633,0.058c-0.85,1.154 0.646,6.137 2.821,9.317c3.125,4.575 7.879,7.608 13.571,8.688c1.017,0.179 2.817,0.3 5.483,0.358c0.221,0 0.121,0.558 -0.133,0.75c-0.408,0.3 -4.704,-0.029 -6.796,-0.525c-5.946,-1.379 -11.225,-5.371 -14.096,-10.667c-1.496,-2.746 -2.479,-6.721 -1.971,-7.904c0.254,-0.6 1.204,-1.442 1.783,-1.604c0.288,-0.075 0.95,-0.121 1.496,-0.108c0.746,0.046 1.088,0.137 1.579,0.467m-2.496,-0.796c-1.462,0.196 -2.242,0.813 -2.771,2.163c-0.237,0.629 -0.254,0.9 -0.083,1.692c0.1,0.542 0.15,1.008 0.1,1.038c-0.05,0.046 -0.646,-0.121 -1.325,-0.375c-2.833,-1.038 -5.538,-1.712 -8.204,-2.071c-3.038,-0.392 -9.188,-0.104 -8.812,0.404c0.05,0.075 0,0.137 -0.088,0.137c-0.254,0 -0.133,0.537 0.204,0.867c0.258,0.242 0.425,0.258 1.342,0.15c1.413,-0.162 5.913,-0.179 6.1,-0.013c0.067,0.058 0.083,0.208 0,0.313c-0.104,0.15 -0.833,0.212 -2.771,0.258c-3.125,0.058 -4.433,0.271 -4.804,0.779c-0.308,0.404 -0.121,0.871 0.425,1.021c0.188,0.046 1.087,0.012 2.021,-0.075c1.646,-0.179 4.4,-0.137 4.754,0.075c0.104,0.046 0.188,0.179 0.188,0.283c0,0.15 -0.696,0.213 -2.921,0.288c-3.175,0.104 -4.112,0.267 -4.5,0.808c-0.258,0.329 -0.238,0.392 0.117,0.721c0.358,0.329 0.475,0.358 1.375,0.271c0.833,-0.075 1.004,-0.046 1.004,0.133c0,0.346 -0.342,0.525 -1.242,0.646c-0.558,0.075 -0.9,0.225 -1.138,0.496c-0.425,0.462 -0.425,0.554 0.017,0.946c0.292,0.254 0.475,0.283 1.258,0.208c0.679,-0.075 1,-0.046 1.275,0.121c0.425,0.254 0.558,0.196 -1.75,0.721c-0.767,0.179 -1.104,0.675 -0.817,1.154c0.254,0.404 0.696,0.45 2.225,0.208c0.867,-0.133 2.054,-0.179 3.771,-0.117c2.104,0.058 2.546,0.042 2.767,-0.154c0.325,-0.283 0.325,-0.508 0,-0.9c-0.167,-0.237 -0.558,-0.358 -1.525,-0.492c-0.7,-0.108 -1.275,-0.213 -1.275,-0.258c0,-0.029 0.133,-0.3 0.304,-0.567c0.308,-0.513 0.325,-0.513 0.646,-0.258c0.171,0.15 0.967,0.392 1.767,0.542c1.358,0.271 2.413,0.571 4.246,1.217c0.425,0.15 0.8,0.312 0.85,0.375c0.05,0.042 0.358,0.208 0.679,0.358c0.321,0.15 1.137,0.587 1.783,0.975c1.529,0.917 1.833,1.004 2.292,0.6c0.325,-0.283 0.325,-0.329 0.087,-0.75c-0.613,-1.05 -4.483,-3.029 -7.646,-3.9c-1.679,-0.467 -3.379,-0.646 -4.092,-0.404c-0.271,0.088 -0.392,0.029 -0.542,-0.271c-0.408,-0.796 -0.325,-0.871 0.95,-0.75c1.425,0.133 3.738,0.6 4.958,0.992c1.225,0.404 4.212,1.725 4.754,2.083c0.242,0.167 1.004,0.692 1.7,1.171c1.204,0.825 4.417,3.704 4.417,3.946c0,0.254 0.833,0.883 1.154,0.883c0.204,0 0.492,-0.179 0.663,-0.387c0.221,-0.317 0.254,-0.483 0.104,-0.825c-0.104,-0.242 -0.121,-0.438 -0.037,-0.438c0.088,0 0.154,0.104 0.154,0.225c0,0.121 0.067,0.225 0.154,0.225c0.1,0 0.508,0.254 0.917,0.554c1.188,0.888 1.342,1.008 2.071,1.383c0.646,0.329 1.8,0.912 2.55,1.275c0.729,0.358 0.933,0.571 0.763,0.838c-0.137,0.225 0.121,1.533 0.679,3.454c0.083,0.283 0.204,1.092 0.254,1.8c0.071,0.704 0.221,1.425 0.358,1.604c0.204,0.283 0.188,0.346 -0.188,0.554c-0.629,0.362 -0.729,0.3 -0.867,-0.479c-0.05,-0.392 -0.254,-0.825 -0.425,-0.975c-0.304,-0.254 -0.304,-0.3 -0.05,-0.692c0.238,-0.358 0.254,-0.554 0.083,-1.454c-0.117,-0.571 -0.271,-1.246 -0.354,-1.483c-0.883,-2.717 -1.104,-3.079 -1.817,-3.079c-0.188,0 -0.442,0.167 -0.563,0.362c-0.187,0.329 -0.137,0.613 0.392,2.296c0.321,1.05 0.646,2.188 0.712,2.521c0.05,0.329 0.238,0.762 0.408,0.958c0.271,0.317 0.287,0.421 0.1,0.675c-0.133,0.212 -0.254,1.067 -0.304,2.417c-0.05,1.154 -0.137,2.308 -0.171,2.55c-0.204,1.004 -0.663,2.608 -1.054,3.629c-0.508,1.275 -0.508,1.425 -0.117,1.742c0.408,0.329 0.762,0.317 1.104,-0.017c0.375,-0.358 1.221,-2.671 1.596,-4.333c0.188,-0.767 0.375,-1.425 0.442,-1.488c0.05,-0.058 0.237,-0.012 0.375,0.092c0.221,0.167 0.254,0.375 0.15,1.154c-0.083,0.796 -0.067,1.004 0.188,1.246c0.663,0.646 1.413,0.121 1.562,-1.096c0.071,-0.496 0.271,-0.796 0.883,-1.379c0.475,-0.467 0.933,-0.75 1.171,-0.75c0.75,-0.017 0.971,-0.421 1.004,-1.846c0.05,-2.025 -0.508,-6.017 -0.95,-6.75c-0.171,-0.288 -0.154,-0.346 0.083,-0.438c0.154,-0.046 0.475,-0.029 0.713,0.046c0.392,0.121 0.425,0.208 0.458,1.038c0.054,1.454 0.425,3.525 0.717,3.912c0.558,0.75 1.408,0.242 1.408,-0.854c0,-0.6 -0.325,-2.446 -0.612,-3.479l-0.1,-0.408l1.254,0c1.292,0 1.7,-0.133 1.904,-0.642c0.067,-0.183 -0.05,-0.392 -0.308,-0.633c-0.371,-0.329 -0.542,-0.358 -2.038,-0.358c-6.179,0 -12.025,-2.85 -15.946,-7.758c-0.971,-1.229 -2.667,-4.171 -2.667,-4.621c0,-0.133 -0.121,-0.479 -0.254,-0.779c-0.358,-0.75 -0.767,-2.608 -0.783,-3.583c-0.017,-0.721 0.033,-0.888 0.425,-1.2c0.342,-0.287 0.646,-0.375 1.171,-0.375c1.138,0.013 1.65,0.567 1.887,2.025c0.338,2.112 0.95,3.421 1.629,3.496c0.238,0.029 0.562,-0.046 0.729,-0.15c0.325,-0.212 0.308,-0.392 -0.287,-2.521c-0.138,-0.542 -0.338,-1.35 -0.442,-1.817c-0.425,-1.979 -1.971,-2.987 -4.108,-2.671" style="fill:#126a9d;fill-rule:nonzero;"/><path d="M9.115,9.734c-0.358,0.179 -0.408,0.883 -0.1,1.154c0.117,0.104 0.354,0.179 0.558,0.179c0.729,0 1.037,-0.792 0.492,-1.258c-0.304,-0.271 -0.542,-0.3 -0.95,-0.075" style="fill:#126a9d;fill-rule:nonzero;"/><path d="M3.986,14.355c-0.321,0.317 -0.154,0.958 0.304,1.108c0.479,0.167 1.121,-0.192 1.121,-0.642c0,-0.738 -0.846,-1.021 -1.425,-0.467" style="fill:#126a9d;fill-rule:nonzero;"/><path d="M33.284,34.009c-0.271,0.421 -0.237,0.692 0.121,0.958c0.421,0.333 0.763,0.317 1.138,-0.042c0.254,-0.242 0.288,-0.392 0.15,-0.721c-0.204,-0.525 -1.137,-0.662 -1.408,-0.196" style="fill:#126a9d;fill-rule:nonzero;"/><path d="M11.816,5.668c1.496,0.283 3.908,0.946 5.196,1.425c0.496,0.179 0.629,0.317 0.629,0.617c0,0.346 -0.05,0.388 -0.458,0.313c-0.271,-0.042 -1.104,-0.283 -1.883,-0.538c-1.379,-0.45 -3.383,-0.933 -4.671,-1.142c-0.662,-0.092 -0.917,-0.346 -0.733,-0.75c0.121,-0.283 0.071,-0.283 1.921,0.075m-2.021,-0.392c-0.358,0.242 -0.392,0.663 -0.05,1.038c0.204,0.254 1,0.462 3.412,0.929c0.204,0.046 1.104,0.317 2.004,0.6c1.921,0.617 2.242,0.629 2.667,0.196c0.392,-0.375 0.392,-0.346 0.05,-0.796c-0.371,-0.508 -3.242,-1.454 -6.012,-1.967c-1.358,-0.254 -1.696,-0.254 -2.071,0" style="fill:#126a9d;fill-rule:nonzero;"/><path d="M35.662,6.718c0.375,1.367 1,2.371 1.971,3.167c1.088,0.9 1.325,1.004 2.683,1.171c1.425,0.179 2.258,0.554 2.837,1.304c1.087,1.396 0.625,3.271 -1.021,4.067c-1.358,0.658 -3.821,0.525 -5.908,-0.317c-1.583,-0.646 -3.925,-2.417 -3.754,-2.833c0.033,-0.092 0.167,-0.225 0.321,-0.317c0.221,-0.121 0.442,0 1.071,0.571c1.817,1.621 3.737,2.383 6.029,2.4c1.646,0.013 2.175,-0.196 2.617,-1.037c0.354,-0.675 0.338,-1.2 -0.087,-1.858c-0.458,-0.738 -0.846,-0.929 -2.137,-1.067c-2.021,-0.225 -3.688,-1.304 -4.775,-3.133c-0.663,-1.096 -1.121,-2.688 -0.85,-2.971c0.392,-0.421 0.733,-0.137 1.004,0.854m-1.221,-1.108c-0.308,0.329 -0.258,1.317 0.1,2.25c0.933,2.475 3.246,4.275 5.725,4.5c0.746,0.058 1,0.163 1.458,0.583c0.75,0.708 0.767,1.546 0.05,2.192c-0.475,0.404 -0.575,0.433 -1.9,0.433c-2.087,0 -3.688,-0.613 -5.504,-2.113c-0.833,-0.692 -1.442,-0.917 -1.8,-0.675c-0.679,0.433 -0.442,1.021 0.8,2.037c1.05,0.871 1.9,1.338 3.379,1.875c1.017,0.363 1.425,0.421 2.888,0.438c1.342,0.013 1.867,-0.046 2.462,-0.287c0.425,-0.163 0.817,-0.358 0.883,-0.45c0.05,-0.075 0.271,-0.312 0.458,-0.508c0.729,-0.733 0.9,-2.233 0.375,-3.254c-0.308,-0.587 -1.513,-1.637 -1.921,-1.683c-1.004,-0.088 -2.733,-0.479 -3.092,-0.675c-1.292,-0.75 -2.242,-2.008 -2.717,-3.629c-0.342,-1.183 -1.071,-1.633 -1.646,-1.033" style="fill:#126a9d;fill-rule:nonzero;"/><path d="M38.974,7.183c0.492,0.796 1.138,1.2 2.275,1.408c0.325,0.062 1.071,0.3 1.667,0.542c0.796,0.317 1.05,0.496 1.05,0.738c0,0.462 -0.458,0.525 -1.154,0.179c-0.337,-0.167 -1.087,-0.421 -1.646,-0.554c-0.562,-0.154 -1.308,-0.392 -1.65,-0.542c-1.358,-0.617 -2.358,-2.537 -1.325,-2.537c0.204,0 0.496,0.271 0.783,0.767m-1.292,-0.767c-0.371,0.333 -0.338,0.75 0.104,1.517c0.354,0.617 1.508,1.454 2.308,1.65c0.983,0.242 2.175,0.6 2.683,0.842c0.612,0.283 1.154,0.238 1.358,-0.092c0.254,-0.433 0.204,-0.779 -0.117,-1.021c-0.767,-0.525 -1.104,-0.675 -2.175,-0.946c-1.408,-0.358 -2.208,-0.808 -2.567,-1.467c-0.133,-0.271 -0.458,-0.558 -0.679,-0.646c-0.558,-0.179 -0.525,-0.179 -0.917,0.162" style="fill:#126a9d;fill-rule:nonzero;"/><path d="M23.552,35.494c0.121,1.004 -1.154,3.975 -2.396,5.579c-0.883,1.158 -2.683,2.704 -3.125,2.704c-0.662,0 -0.458,-0.408 0.85,-1.667c1.904,-1.846 2.971,-3.6 3.583,-5.942c0.287,-1.108 0.392,-1.275 0.746,-1.217c0.188,0.033 0.308,0.225 0.342,0.542m-7.779,-1.217c0.562,0.287 0.85,0.767 0.85,1.412c0,0.6 -0.95,1.483 -1.596,1.483c-0.308,0 -0.646,0.196 -1.071,0.617c-0.8,0.779 -2.037,1.529 -2.362,1.425c-0.408,-0.133 -0.287,-0.767 0.187,-0.958c0.237,-0.092 0.767,-0.45 1.188,-0.796l0.783,-0.633l-0.358,-0.329c-0.221,-0.208 -0.338,-0.525 -0.338,-0.913c0.017,-1.246 1.479,-1.95 2.717,-1.308m2.292,-4.2c0.425,1.262 0.529,4.05 0.188,5.325c-0.442,1.683 -1.325,3.046 -2.837,4.367c-1.375,1.2 -1.9,1.413 -2.121,0.825c-0.083,-0.254 0,-0.387 0.375,-0.629c1.817,-1.108 3.258,-3.121 3.733,-5.238c0.308,-1.317 0.154,-3.162 -0.354,-4.5c-0.308,-0.796 -0.238,-1.004 0.321,-1.004c0.342,0 0.442,0.133 0.696,0.854m-9.746,-3.358c1.8,0.763 2.887,1.663 3.667,3.058c0.579,1.038 0.646,1.275 0.696,2.596c0.087,1.679 -0.15,2.521 -1.017,3.675c-0.563,0.75 -1.579,1.442 -1.921,1.321c-0.525,-0.167 -0.408,-0.525 0.408,-1.183c1.325,-1.083 1.85,-2.613 1.529,-4.396c-0.358,-1.95 -1.617,-3.363 -3.858,-4.321c-1.121,-0.483 -1.458,-0.542 -2.529,-0.542c-0.696,0 -1.425,0.075 -1.663,0.196c-0.342,0.162 -0.462,0.162 -0.683,0c-0.812,-0.6 0.392,-1.067 2.55,-1.004c1.358,0.042 1.663,0.104 2.821,0.6m2.817,-1.262c2.667,1.65 4.571,4.488 4.688,6.963c0.033,0.9 0.017,0.929 -0.387,0.929c-0.375,0 -0.425,-0.075 -0.612,-1.125c-0.254,-1.379 -0.579,-2.204 -1.292,-3.208c-0.867,-1.246 -1.937,-2.267 -3.192,-3.004c-1.104,-0.658 -1.358,-0.942 -1.071,-1.183c0.254,-0.225 0.746,-0.058 1.867,0.629m5.538,-3.421c0.729,0.363 0.967,0.767 0.933,1.563c-0.05,0.675 0.017,0.837 0.596,1.529c0.883,1.067 2.225,3.646 2.6,4.996c0.425,1.517 0.425,4.621 0,5.987c-0.663,2.129 -1.904,4.004 -3.637,5.446c-1.017,0.871 -1.613,1.079 -1.8,0.646c-0.05,-0.138 0.425,-0.663 1.325,-1.471c1.192,-1.05 1.546,-1.488 2.192,-2.671c0.425,-0.783 0.883,-1.892 1.038,-2.492c0.746,-3 -0.154,-6.871 -2.242,-9.571l-0.817,-1.038l-0.783,0.046c-0.662,0.029 -0.862,-0.029 -1.304,-0.392c-0.717,-0.554 -0.833,-1.288 -0.358,-1.963c0.508,-0.721 1.463,-0.975 2.258,-0.617m-8.575,-0.387c2.258,0.462 5.383,2.142 6.979,3.75c0.779,0.796 2.054,2.55 2.054,2.833c0,0.6 -0.833,0.45 -1.171,-0.225c-0.342,-0.675 -2.054,-2.504 -2.992,-3.179c-1.204,-0.888 -2.904,-1.725 -4.412,-2.163c-1.783,-0.508 -4.588,-0.567 -6.012,-0.133c-0.783,0.242 -0.938,0.242 -1.137,0.058c-0.563,-0.492 0.15,-0.867 2.225,-1.154c1.104,-0.15 3.125,-0.058 4.467,0.212m4.671,-3.467c3.65,1.529 6.571,3.929 8.592,7.021c1.429,2.204 2.108,4.142 2.413,6.946c0.171,1.637 0.05,2.175 -0.442,2.175c-0.375,0 -0.425,-0.179 -0.508,-1.65c-0.375,-6.062 -4.604,-11.462 -10.821,-13.817c-1.037,-0.375 -1.292,-0.646 -0.967,-0.975c0.271,-0.288 0.338,-0.271 1.733,0.3m-1.767,-0.629c-0.717,0.492 -0.458,1.062 0.662,1.529c1.988,0.825 4.108,2.054 4.108,2.383c0,0.063 -0.117,0.108 -0.287,0.108c-0.529,0 -1.392,0.733 -1.579,1.35c-0.104,0.329 -0.254,0.6 -0.358,0.6c-0.1,0 -0.629,-0.271 -1.171,-0.6c-1.037,-0.617 -1.171,-0.675 -3.058,-1.292c-3.208,-1.05 -8.117,-0.721 -8.288,0.554c-0.033,0.271 0.067,0.467 0.354,0.629c0.358,0.196 0.512,0.213 1.412,0.017c1.171,-0.254 3.975,-0.3 4.467,-0.058c0.188,0.075 0.408,0.133 0.475,0.117c0.237,-0.058 1.988,0.512 2.6,0.858c0.321,0.179 0.729,0.358 0.9,0.417c0.9,0.3 3.6,2.717 4.175,3.738c0.292,0.525 1.021,1.067 1.308,0.958c0.221,-0.075 0.121,0.467 -0.1,0.588c-0.083,0.046 -0.033,0.433 0.1,0.871c0.275,0.837 0.529,3.825 0.358,4.217c-0.083,0.192 -0.221,0.15 -0.729,-0.288c-0.596,-0.525 -0.613,-0.538 -0.325,-0.825c0.579,-0.554 0.033,-2.821 -1.154,-4.875c-0.662,-1.142 -3.108,-3.329 -4.229,-3.796c-0.663,-0.271 -0.883,-0.3 -1.242,-0.15c-0.421,0.167 -0.525,0.467 -0.321,0.946c0.067,0.133 0.596,0.508 1.187,0.854c0.596,0.329 1.088,0.646 1.088,0.692c0,0.058 0.308,0.404 0.679,0.75c1.308,1.258 2.125,2.821 2.533,4.888c0.1,0.496 0.188,0.917 0.188,0.933c0,0.013 -0.221,0.058 -0.513,0.104c-0.271,0.058 -0.646,0.225 -0.812,0.375c-0.308,0.271 -0.325,0.254 -0.342,-1.2c-0.05,-2.942 -1.088,-4.637 -3.804,-6.183c-1.292,-0.717 -2.362,-1.004 -3.958,-1.017c-1.629,-0.033 -2.683,0.312 -2.767,0.9c-0.121,0.675 0.204,0.779 1.988,0.688c1.8,-0.088 2.817,0.137 4.108,0.917c3.008,1.846 3.633,5.521 1.308,7.638c-0.833,0.762 -0.95,1.092 -0.508,1.467c0.608,0.542 1.713,0.033 2.579,-1.183l0.475,-0.658l0.292,0.675c0.338,0.763 0.288,0.854 -0.646,1.454c-0.867,0.554 -1.192,0.958 -1.054,1.333c0.271,0.75 1.65,0.421 2.921,-0.704c0.425,-0.375 0.95,-0.688 1.275,-0.75l0.525,-0.092l-0.475,0.587c-0.271,0.317 -0.9,0.929 -1.392,1.35c-0.967,0.842 -1.121,1.258 -0.546,1.604c0.546,0.346 1.004,0.138 2.446,-1.171c2.025,-1.812 2.975,-3.75 3.058,-6.225c0.087,-2.233 -0.475,-4.2 -1.308,-4.592c-0.408,-0.179 -0.458,-0.271 -0.304,-0.433c0.304,-0.317 0.083,-0.917 -0.696,-1.921c-0.783,-1.004 -0.8,-1.154 -0.238,-1.154c0.967,0 2.817,3.375 3.329,6.075c0.238,1.229 0.1,3.479 -0.254,4.396c-0.137,0.346 -0.221,0.629 -0.188,0.629c0.05,0 -0.071,0.254 -0.254,0.554c-0.188,0.317 -0.342,0.633 -0.342,0.692c0,0.3 -1.358,1.921 -2.413,2.867c-1.204,1.079 -1.375,1.442 -0.812,1.783c0.508,0.317 1.05,0.15 1.883,-0.538c2.633,-2.208 3.992,-4.817 4.179,-7.996c0.188,-3.258 -0.679,-6.033 -2.788,-8.779c-0.712,-0.946 -0.829,-1.483 -0.321,-1.483c0.238,0 1.496,1.679 2.242,3c1.088,1.921 1.513,3.283 1.767,5.775c0.117,1.067 0.271,1.725 0.425,1.862c0.221,0.192 0.204,0.267 -0.104,0.554c-0.188,0.179 -0.492,0.837 -0.663,1.454c-0.629,2.204 -1.933,4.217 -3.938,6.046c-0.717,0.646 -0.817,0.825 -0.717,1.154c0.137,0.513 0.767,0.675 1.308,0.363c1.854,-1.096 4.079,-4.158 4.858,-6.721c0.425,-1.35 0.442,-1.908 0.083,-2.25c-0.238,-0.225 -0.221,-0.287 0.171,-0.633c0.408,-0.358 0.425,-0.45 0.358,-1.696c-0.067,-1.408 -0.358,-3.117 -0.613,-3.538c-0.083,-0.137 -0.204,-0.525 -0.254,-0.871c-0.067,-0.329 -0.171,-0.6 -0.254,-0.6c-0.087,0 -0.154,-0.15 -0.154,-0.329c0,-0.421 -1.579,-3.004 -2.413,-3.946c-2.171,-2.433 -4.583,-4.187 -7.267,-5.296c-1.429,-0.6 -1.887,-0.692 -2.225,-0.45" style="fill:#126a9d;fill-rule:nonzero;"/><path d="M15.298,22.951c-0.596,0.525 0.238,1.529 0.967,1.183c0.767,-0.375 0.562,-1.363 -0.288,-1.363c-0.271,0 -0.558,0.075 -0.679,0.179" style="fill:#126a9d;fill-rule:nonzero;"/><path d="M14.177,35.239c-0.287,0.375 -0.067,0.975 0.425,1.079c0.712,0.167 1.325,-0.75 0.796,-1.212c-0.321,-0.288 -0.933,-0.212 -1.221,0.133" style="fill:#126a9d;fill-rule:nonzero;"/><path d="M9.2,19.546c1.425,0.358 4.4,1.558 4.604,1.858c0.167,0.242 -0.088,0.617 -0.442,0.617c-0.171,0 -0.613,-0.163 -0.954,-0.375c-0.863,-0.525 -2.921,-1.2 -4.483,-1.483c-1.662,-0.3 -3.854,-0.3 -5.5,-0.017c-1.362,0.254 -1.6,0.225 -1.6,-0.225c0,-0.542 2.158,-0.9 4.929,-0.825c1.442,0.046 2.342,0.167 3.446,0.45m-6.675,-0.692c-1.087,0.137 -1.904,0.6 -1.987,1.113c-0.1,0.658 0.475,0.796 2.275,0.508c2.667,-0.433 5.642,-0.075 8.271,0.975c0.663,0.271 1.258,0.542 1.308,0.617c0.054,0.058 0.358,0.15 0.679,0.196c0.512,0.075 0.646,0.029 0.9,-0.317c0.308,-0.421 0.237,-0.6 -0.404,-1.096c-0.817,-0.6 -3.5,-1.558 -5.404,-1.904c-1.154,-0.225 -4.213,-0.271 -5.638,-0.092" style="fill:#126a9d;fill-rule:nonzero;"/><path d="M35.441,19.681c1.258,0.571 4.621,0.946 6.371,0.704c1.342,-0.162 1.679,-0.104 1.612,0.329c-0.067,0.438 -0.817,0.571 -3.175,0.571c-2.821,-0.013 -5.963,-0.721 -5.963,-1.333c0,-0.525 0.392,-0.617 1.154,-0.271m-0.983,-0.317c-1.004,0.45 -0.408,1.233 1.304,1.725c2.263,0.663 6.508,0.812 7.425,0.288c0.558,-0.329 0.662,-0.812 0.237,-1.188c-0.288,-0.254 -0.458,-0.283 -1.308,-0.192c-0.967,0.117 -2.512,0.104 -3.583,0c-0.596,-0.075 -2.888,-0.571 -3.396,-0.738c-0.138,-0.046 -0.442,0 -0.679,0.104" style="fill:#126a9d;fill-rule:nonzero;"/><path d="M19.272,19.846c-0.358,0.329 -0.083,0.917 0.933,1.979c1.121,1.171 1.171,1.217 1.171,1.321c0,0.063 0.188,0.317 0.408,0.571c0.579,0.675 1.871,3 2.313,4.154c0.712,1.875 1,3.662 0.933,5.779c-0.033,1.096 -0.188,2.383 -0.342,2.925c-0.15,0.538 -0.271,1.096 -0.271,1.229c0,0.15 -0.067,0.271 -0.171,0.271c-0.083,0 -0.15,0.104 -0.15,0.208c0,0.663 -1.921,3.692 -2.7,4.246c-0.137,0.104 -0.188,0.196 -0.121,0.196c0.067,0 -0.204,0.317 -0.613,0.692c-0.408,0.375 -0.796,0.796 -0.883,0.913c-0.167,0.271 0.137,0.946 0.425,0.946c0.121,0 0.087,-0.121 -0.1,-0.3c-0.308,-0.3 -0.292,-0.312 0.713,-1.246c2.871,-2.637 4.4,-5.925 4.587,-9.854c0.221,-4.696 -1.633,-9.125 -5.3,-12.725c-0.817,-0.796 -0.917,-1.229 -0.271,-1.229c0.387,0 1.762,1.321 2.904,2.775c5.367,6.962 4.871,16.025 -1.158,21.558c-0.625,0.588 -1,1.021 -0.846,1.021c0.321,0 2.392,-1.921 2.783,-2.579c0.154,-0.271 0.458,-0.704 0.663,-0.946c0.783,-0.929 1.479,-2.417 2.158,-4.65c0.508,-1.65 0.542,-5.642 0.067,-7.654c-0.712,-3.058 -2.054,-5.579 -4.312,-8.083c-1.562,-1.725 -2.192,-2.071 -2.821,-1.517" style="fill:#126a9d;fill-rule:nonzero;"/><path d="M27.051,41.015c0.121,0.271 -0.342,1.096 -1.358,2.475c-0.883,1.171 -1.325,1.546 -1.683,1.442c-0.425,-0.15 -0.304,-0.467 0.85,-1.983c0.613,-0.808 1.104,-1.542 1.104,-1.633c0,-0.479 0.9,-0.733 1.087,-0.3m-0.188,-16.638c1.613,3.092 2.225,5.533 2.208,8.896c-0.017,2.446 -0.188,3.479 -1,5.808c-0.325,0.942 -0.496,1.242 -0.717,1.242c-0.646,0 -0.679,-0.283 -0.254,-1.471c1.683,-4.679 1.308,-9.508 -1.088,-14.012c-0.779,-1.467 -0.829,-1.917 -0.254,-1.917c0.238,0 0.529,0.375 1.104,1.454m-1.579,-1.454c-0.492,0.433 -0.425,0.75 0.425,2.233c0.425,0.733 0.763,1.396 0.763,1.471c0,0.092 0.154,0.571 0.342,1.079c1.137,3.167 1.221,6.871 0.238,10.142c-0.254,0.825 -0.475,1.725 -0.492,2.012c-0.033,0.3 -0.238,0.675 -0.546,0.975c-0.287,0.254 -0.762,0.871 -1.067,1.362c-0.308,0.496 -0.613,0.933 -0.683,0.975c-0.05,0.046 -0.287,0.392 -0.492,0.783c-0.337,0.646 -0.354,0.733 -0.133,0.946c0.458,0.404 1.067,0.267 1.613,-0.346c1.292,-1.471 2.175,-2.971 2.021,-3.483c-0.067,-0.208 0.067,-0.433 0.375,-0.717c0.542,-0.467 0.867,-1.171 1.287,-2.733c0.425,-1.546 0.425,-1.621 0.513,-3.825c0.083,-2.85 -0.138,-4.292 -1.138,-7.125c-0.817,-2.342 -1.904,-4.05 -2.55,-4.05c-0.083,0 -0.287,0.133 -0.475,0.3" style="fill:#126a9d;fill-rule:nonzero;"/><path d="M6.771,23.807c0.304,0.075 0.425,0.208 0.425,0.467c0,0.375 0,0.375 -1.462,0.312c-1.033,-0.029 -1.767,0.029 -2.446,0.212c-0.9,0.225 -1,0.225 -1.254,0.012c-0.238,-0.225 -0.238,-0.254 0.017,-0.479c0.558,-0.496 3.496,-0.825 4.721,-0.525m-1.629,-0.496c-0.088,0.017 -0.663,0.075 -1.308,0.137c-1.75,0.15 -2.667,0.975 -1.833,1.633c0.183,0.15 0.475,0.225 0.642,0.179c0.733,-0.196 1.6,-0.271 3.075,-0.3c1.192,-0.013 1.617,-0.075 1.733,-0.238c0.271,-0.392 0.188,-0.825 -0.204,-1.05c-0.354,-0.196 -1.75,-0.438 -2.104,-0.363" style="fill:#126a9d;fill-rule:nonzero;"/><path d="M7.145,28.743c1.646,0.646 2.65,1.846 2.804,3.329c0.083,0.796 0.033,1.008 -0.425,1.846c-0.646,1.142 -1.071,1.517 -1.546,1.383c-0.408,-0.108 -0.475,-0.604 -0.121,-0.721c0.137,-0.046 0.442,-0.467 0.696,-0.917c0.883,-1.604 0.254,-3.196 -1.612,-4.038c-0.8,-0.358 -1.104,-0.417 -2.038,-0.375c-1.071,0.046 -1.104,0.033 -1.104,-0.329c0,-0.254 0.121,-0.387 0.425,-0.479c0.662,-0.167 2.104,-0.029 2.921,0.3m-3.225,-0.421c-0.408,0.346 -0.496,0.963 -0.154,1.154c0.1,0.062 0.646,0.121 1.171,0.137c1.767,0.029 3.329,1.021 3.583,2.25c0.137,0.646 -0.117,1.483 -0.629,2.146c-0.592,0.75 -0.575,1.321 0.017,1.529c0.646,0.212 1.192,-0.179 1.837,-1.292c0.442,-0.779 0.508,-1.062 0.508,-2.142c0,-0.675 -0.083,-1.292 -0.171,-1.354c-0.1,-0.058 -0.287,-0.3 -0.425,-0.525c-0.712,-1.229 -2.512,-2.142 -4.279,-2.188c-0.883,-0.017 -1.154,0.029 -1.458,0.283" style="fill:#126a9d;fill-rule:nonzero;"/><path d="M7.009,31.488c0.763,0.525 0.458,1.783 -0.442,1.783c-0.392,0 -0.596,-0.404 -0.321,-0.642c0.338,-0.3 0.221,-0.6 -0.188,-0.513c-0.358,0.092 -0.817,-0.104 -0.817,-0.358c0,-0.242 0.542,-0.587 0.917,-0.587c0.221,0 0.596,0.137 0.85,0.317m-1.562,-0.375c-0.475,0.283 -0.492,0.9 -0.033,1.142c0.188,0.104 0.338,0.312 0.338,0.45c0,0.329 0.596,0.871 0.937,0.871c0.15,0 0.458,-0.167 0.679,-0.379c1.237,-1.079 -0.496,-2.967 -1.921,-2.083" style="fill:#126a9d;fill-rule:nonzero;"/></svg>